
<svg xmlns="http://www.w3.org/2000/svg" version="1.1" xmlns:xlink="http://www.w3.org/1999/xlink" preserveAspectRatio="none" x="0px" y="0px" width="50px" height="50px" viewBox="0 0 50 50">
  <defs/>

  <g id="Livello_2">
    <g transform="matrix( 1, 0, 0, 1, 0,0) ">
      <g>
        <g>
          <path fill="#B7B7B7" stroke="none" d="
M 49.45 25
Q 49.45 14.9 42.25 7.75 39.45 4.95 36.15 3.2 31.15 0.6 25 0.6 18.9 0.6 13.9 3.2 10.55 4.95 7.75 7.75 0.6 14.9 0.6 25 0.6 35.1 7.75 42.25 14.9 49.45 25 49.45 35.1 49.45 42.25 42.25 49.45 35.1 49.45 25
M 41.7 8.95
Q 48.7 15.6 48.7 25 48.7 34.4 41.7 41.05 34.7 47.75 24.85 47.75 14.95 47.75 7.95 41.05 0.95 34.4 0.95 25 0.95 15.6 7.95 8.95 12.35 4.75 17.95 3.2 21.25 2.3 24.85 2.3 28.4 2.3 31.7 3.2 37.25 4.75 41.7 8.95 Z"/>
        </g>
      </g>
    </g>
  </g>

  <g id="Livello_3">
    <g transform="matrix( 1, 0, 0, 1, 0,0) ">
      <g>
        <g>
          <path fill="#B7B7B7" stroke="none" d="
M 42.95 11.8
Q 43.95 11.15 44.2 11.15 43.15 10.1 41.55 8.55 38.1 13.05 34.1 15.35 29.9 17.75 25 17.75 20.8 17.75 16.05 11.65 14.55 9.75 13.2 7.45
L 12.1 5.55
Q 11.75 5.75 11.25 6 10.25 6.6 9.65 7.15 15 12.15 17.55 16.95 19.35 20.3 20.45 25.2 21.3 28.6 19.65 33 19.05 34.5 18.05 36.5 16.9 38.7 16.4 39.65 15.2 42 14.05 43.9
L 13.2 45.35 16.4 46.8
Q 16.6 45.75 16.95 44.25 17.7 41.4 18.5 39.4 20.35 34.65 22.1 32.75 23.5 31.15 25.1 31.15 26.55 31.15 27.85 32.45 29.1 33.7 31.2 37.2 32.9 40.2 34.4 43.6 35.15 45.25 35.55 46.45
L 36.8 45.65
Q 38.2 44.75 38.85 44.2 33.6 38.6 31.45 32.4 29.85 27.5 31.25 23.7 32.6 20.1 37.2 16.25 41 13.15 42.95 11.8 Z"/>
        </g>
      </g>
    </g>
  </g>

  <g id="Livello_4">
    <g transform="matrix( 1, 0, 0, 1, 0,0) ">
      <g>
        <g>
          <path fill="#B7B7B7" stroke="none" d="
M 28.05 14.25
Q 28.6 12.7 28.4 11.45 28.2 10.2 27.35 9.85 26.5 9.5 25.5 10.3 24.5 11.1 23.95 12.55 23.4 14.1 23.55 15.35 23.75 16.6 24.6 16.95 25.45 17.3 26.45 16.5 27.45 15.7 28.05 14.25 Z"/>
        </g>
      </g>
    </g>
  </g>
</svg>
