<!--?xml version="1.0" encoding="UTF-8"?-->
<svg viewBox="0 0 107 45" version="1.1" xmlns="http://www.w3.org/2000/svg" xmlns:xlink="http://www.w3.org/1999/xlink">
  <!-- Generator: Sketch 58 (84663) - https://sketch.com -->
  <title>ped_logo</title>
  <desc>Created with Sketch.</desc>
  <g id="Page-1" stroke="none" stroke-width="1" fill-rule="evenodd">
    <g id="Artboard" transform="translate(-312.000000, -32.000000)" fill-rule="nonzero">
      <path d="M372.28169,32.0051079 L372.28169,41.0040863 L354.197183,41.0040863 L354.197183,50.0030648 L367.760563,50.0030648 L367.760563,59.0020432 L354.197183,59.0020432 L354.197183,68.0010216 L372.28169,68.0010216 L372.28169,77 L345.15493,77 L345.15493,32.0051079 L372.28169,32.0051079 Z M394.382465,32.0051079 C399.792746,32.0051079 404.268662,35.4247197 406.062042,40.9290949 C406.571702,42.5228935 406.863364,44.1768659 406.92985,45.8464342 L406.943662,46.4034734 L406.943662,62.6016345 C406.925487,64.4599498 406.628331,66.3051257 406.062042,68.0760131 C404.30315,73.4745348 399.963905,76.8677055 394.693547,76.9962155 L394.382465,77 L378.309859,77 L378.309859,32.0051079 L394.382465,32.0051079 Z M419,68.0010216 L419,77 L409.957746,77 L409.957746,68.0010216 L419,68.0010216 Z M328.072606,32.0051079 C332.530383,31.8767248 336.704143,34.1763979 338.960986,38.0044269 C340.022963,39.8297467 340.598774,41.8948116 340.633803,44.0037458 L340.633803,44.0037458 L340.633803,47.0034053 C340.605193,49.1250894 340.029162,51.2038516 338.960986,53.04022 C336.694483,56.8538321 332.522571,59.1381203 328.072606,59.0020432 L328.072606,59.0020432 L321.042254,59.0020432 L321.042254,77 L312,77 L312,41.0040863 L321.042254,41.0040863 L321.042254,32.0051079 Z M394.382465,41.0040863 L387.352113,41.0040863 L387.352113,68.0010216 L394.382465,68.0010216 C397.745011,68.0010216 397.894457,63.0709146 397.9011,62.6326829 L397.9011,46.3724251 C397.894457,45.9341933 397.745011,41.0040863 394.382465,41.0040863 Z M328.072606,41.0040863 L321.042254,41.0040863 L321.042254,50.0030648 L328.072606,50.0030648 C331.419894,50.0030648 331.583176,47.2889172 331.591141,47.0241223 L331.591141,43.9830288 C331.583176,43.7182339 331.419894,41.0040863 328.072606,41.0040863 L328.072606,41.0040863 Z" id="ped_logo"></path>
    </g>
  </g>
</svg>
