<?xml version="1.0" encoding="UTF-8" standalone="no"?>
<!-- Created with Inkscape (http://www.inkscape.org/) -->

<svg
   xmlns:dc="http://purl.org/dc/elements/1.1/"
   xmlns:cc="http://creativecommons.org/ns#"
   xmlns:rdf="http://www.w3.org/1999/02/22-rdf-syntax-ns#"
   xmlns:svg="http://www.w3.org/2000/svg"
   xmlns="http://www.w3.org/2000/svg"
   xmlns:sodipodi="http://sodipodi.sourceforge.net/DTD/sodipodi-0.dtd"
   xmlns:inkscape="http://www.inkscape.org/namespaces/inkscape"
   viewBox="0 0 267 267"
   preserveAspectRatio="xMidYMid meet"
   width="267"
   height="267"
   id="svg2"
   version="1.1"
   inkscape:version="0.92.3 (2405546, 2018-03-11)"
   inkscape:export-filename="/home/lunix/Scrivania/SiS/alternate/logosvg.png"
   inkscape:export-xdpi="465"
   inkscape:export-ydpi="465"
   sodipodi:docname="sis.svg">
  <defs
     id="defs4" />
  <sodipodi:namedview
     id="base"
     pagecolor="#ffffff"
     bordercolor="#666666"
     borderopacity="1.0"
     inkscape:pageopacity="0.0"
     inkscape:pageshadow="2"
     inkscape:zoom="1"
     inkscape:cx="412.2358"
     inkscape:cy="84.971491"
     inkscape:document-units="px"
     inkscape:current-layer="layer1"
     showgrid="false"
     inkscape:window-width="1920"
     inkscape:window-height="1025"
     inkscape:window-x="0"
     inkscape:window-y="1227"
     inkscape:window-maximized="1"
     fit-margin-top="0.1"
     fit-margin-left="0.1"
     fit-margin-right="0.1"
     fit-margin-bottom="0.1"
     inkscape:snap-global="false" />
  <metadata
     id="metadata7">
    <rdf:RDF>
      <cc:Work
         rdf:about="">
        <dc:format>image/svg+xml</dc:format>
        <dc:type
           rdf:resource="http://purl.org/dc/dcmitype/StillImage" />
        <dc:title></dc:title>
      </cc:Work>
    </rdf:RDF>
  </metadata>
  <g
     inkscape:label="Livello 1"
     inkscape:groupmode="layer"
     id="layer1"
     transform="translate(-22.379466,-38.945161)">
    <path
       style="fill:#000000;fill-opacity:1;stroke-width:0.71115965"
       d="m 186.64156,255.61188 c -0.43286,-0.0495 -1.95069,-0.19921 -3.37296,-0.33272 -11.88372,-1.11575 -25.27797,-5.38368 -35.86583,-11.42825 -3.71436,-2.12054 -9.07253,-5.76305 -12.47998,-8.48396 -3.41365,-2.7259 -10.52405,-9.68952 -13.12456,-12.85367 l -1.71647,-2.08856 v 9.11556 9.11554 H 104.73975 89.397733 l -1.740924,-1.73071 c -0.9575,-0.95191 -1.775343,-1.68551 -1.817434,-1.63027 -0.04211,0.0553 -0.410874,0.63325 -0.819475,1.28445 -2.54929,4.06299 -8.048473,5.93301 -12.720301,4.32567 -1.692213,-0.5822 -2.659497,-1.19184 -4.189511,-2.64041 l -1.264793,-1.19749 -1.433576,1.4148 c -2.293791,2.26372 -4.79208,3.32206 -7.842207,3.32206 -2.974889,0 -5.513935,-1.04778 -7.735489,-3.1921 l -1.326877,-1.28073 -1.225759,1.0925 c -2.805943,2.50086 -6.60285,3.48486 -10.016393,2.59576 -4.948905,-1.28906 -8.478103,-5.6941 -8.478103,-10.58215 0,-0.73398 -0.08873,-1.00081 -0.333001,-1.00081 -0.183183,0 -0.384607,-0.2277 -0.447682,-0.50594 C 44.232207,113.02063 8.8884135,134.53971 90.335332,91.049215 c 3.506952,-1.731937 5.286442,-1.713454 8.824774,0.09167 1.233064,0.629056 2.850034,2.559072 3.682024,4.394825 l 0.71068,1.568078 0.0502,20.213012 c 0.0276,11.11718 0.10066,20.26351 0.16235,20.32519 0.15255,0.15257 0.58692,-1.02482 0.69942,-1.89586 0.23098,-1.78856 3.22107,-9.28524 5.60631,-14.0561 4.54195,-9.08447 10.0075,-16.62473 17.41938,-24.031651 5.76813,-5.764262 11.16914,-10.027045 17.63035,-13.914842 11.44984,-6.889525 23.72449,-11.069273 37.47174,-12.759809 4.04549,-0.497484 15.82276,-0.57158 19.67562,-0.123792 15.93503,1.852015 29.51586,6.741088 42.15772,15.176693 19.30749,12.883415 33.17012,32.705411 38.64139,55.252971 1.6853,6.94517 2.30214,11.95811 2.45137,19.92186 0.20001,10.67509 -0.9258,19.22046 -3.77434,28.64881 -2.02535,6.70375 -5.82997,15.27481 -9.35669,21.07889 -13.77014,22.66208 -36.17926,38.28016 -62.02026,43.22513 -5.72941,1.0964 -8.93377,1.3882 -16.08186,1.46443 -3.7721,0.0402 -7.21253,0.0326 -7.64539,-0.0169 z m 16.41509,-12.78339 c 18.11285,-2.44016 34.04557,-10.29166 46.77522,-23.05035 12.61523,-12.64404 20.46049,-28.66095 22.85964,-46.67022 0.49695,-3.73031 0.56587,-15.4085 0.11216,-19.00104 -1.28791,-10.19782 -3.77273,-18.4782 -8.13116,-27.09614 -9.71146,-19.20246 -26.13961,-33.369412 -46.54995,-40.142704 -8.97348,-2.977888 -17.6579,-4.241818 -27.32101,-3.976271 -12.14465,0.333741 -22.80197,2.9964 -33.6172,8.399038 -8.49611,4.244144 -15.07109,9.044827 -21.70387,15.846927 -6.40913,6.57272 -10.86399,12.94997 -14.94855,21.39916 -11.2275,23.22492 -10.37385,51.02903 2.26012,73.61377 12.95589,23.16021 36.26302,38.38852 62.72521,40.98307 3.35238,0.32869 14.24026,0.1392 17.53939,-0.30524 z M 59.937324,238.53216 c 3.21945,-0.83855 5.504232,-3.33623 6.176178,-6.75163 0.706563,-3.59146 -1.620338,-7.7339 -5.125703,-9.12495 -0.968321,-0.38431 -1.751168,-0.51098 -3.198874,-0.5177 -1.7205,-0.008 -2.069841,0.0665 -3.41156,0.72697 -7.01862,3.45528 -6.108866,13.63785 1.398671,15.65537 1.611312,0.43298 2.534691,0.43563 4.161288,0.0118 z m -16.715186,-0.60982 c 1.77857,-0.82423 3.196808,-2.20331 4.051576,-3.93957 0.678646,-1.37853 0.739069,-1.67631 0.739069,-3.6422 0,-1.88356 -0.07773,-2.30915 -0.646301,-3.54012 -1.557038,-3.3709 -5.289148,-5.4005 -8.769986,-4.76929 -6.320515,1.14612 -9.147487,8.22675 -5.350302,13.40072 2.120635,2.88951 6.666277,4.02432 9.975944,2.49046 z m 35.978165,0.007 c 3.447772,-1.57846 5.546892,-5.46971 4.88427,-9.0542 -1.257012,-6.79984 -9.60727,-9.33637 -14.282226,-4.33847 -1.600969,1.71154 -2.198407,3.24719 -2.212456,5.68696 -0.01028,1.80967 0.06177,2.17838 0.683046,3.4854 1.530619,3.22018 4.470277,5.01872 7.964749,4.87302 1.230376,-0.0513 2.03729,-0.22909 2.962617,-0.65271 z m 18.619906,-19.62351 v -3.93514 h 8.882121 c 4.88519,0 8.88214,-0.0453 8.88214,-0.10066 0,-0.0554 -0.59157,-1.04199 -1.31462,-2.19243 -3.83659,-6.10457 -7.30926,-13.55011 -9.46469,-20.29265 -0.39307,-1.22954 -0.80692,-2.39319 -0.91972,-2.58594 -0.12642,-0.21599 -0.2077,2.64375 -0.21194,7.4552 l -0.006,7.8056 -0.96868,1.18898 c -2.31015,2.83548 -4.931744,4.29436 -7.720555,4.2964 -2.382807,0.004 -4.439655,-1.03076 -6.844869,-3.43597 -0.994308,-0.99423 -1.852232,-1.8077 -1.906578,-1.8077 -0.05428,0 -0.09881,3.94637 -0.09881,8.76974 v 8.7697 h 5.846477 5.846467 v -3.93513 z m -53.402358,-31.588 c 0.285464,0.56332 1.00099,1.46847 1.590059,2.01146 0.972829,0.89672 1.086643,0.94745 1.241079,0.55312 0.09352,-0.23875 0.177141,-0.62555 0.185825,-0.85958 0.009,-0.23403 0.216591,-1.09966 0.461982,-1.92363 1.079141,-3.62361 3.70036,-5.93666 7.806742,-6.88899 1.163325,-0.2698 1.722349,-0.29156 2.627523,-0.10225 2.706819,0.56603 4.82354,1.74521 6.296954,3.50786 0.462613,0.55348 0.918681,0.95836 1.013487,0.89977 0.09479,-0.0585 0.302533,-0.83505 0.461676,-1.72543 0.588023,-3.2904 2.553518,-5.88965 5.534358,-7.31887 2.951381,-1.4151 5.330807,-1.41627 8.291953,-0.004 2.394719,1.14204 3.889431,2.7968 5.113621,5.66109 0.251992,0.58964 0.306212,0.094 0.430386,-3.93514 0.07809,-2.53531 0.156005,-7.21531 0.173048,-10.39997 l 0.03102,-5.79023 C -81.7427,236.24368 38.837235,176.44487 44.41786,186.71799 Z"
       id="path3066"
       inkscape:connector-curvature="0"
       sodipodi:nodetypes="ccccccccccccsccccsccccsscccccccccssssscccscccccsccccsscssccccccccccccssccccccccccccssccccccccsscccccccccccccccscccccc" />
    <rect
       style="opacity:0;fill:#4b71f2;fill-opacity:1;stroke:#000000;stroke-width:1;stroke-linecap:round;stroke-linejoin:round;stroke-miterlimit:4;stroke-dasharray:none;stroke-dashoffset:0;stroke-opacity:1"
       id="rect3905"
       width="0"
       height="0"
       x="-4.5454545"
       y="-0.33955058"
       transform="translate(26.009769,42.048331)"
       ry="0" />
    <rect
       style="opacity:0;fill:#4b71f2;fill-opacity:1;stroke:#000000;stroke-width:1;stroke-linecap:round;stroke-linejoin:round;stroke-miterlimit:4;stroke-dasharray:none;stroke-dashoffset:0;stroke-opacity:1"
       id="rect3907"
       width="707.57574"
       height="265.15152"
       x="-3.030303"
       y="-1.8547021"
       transform="translate(26.009769,42.048331)" />
    <rect
       style="fill:#e9edef;fill-opacity:1;stroke:none;stroke-width:0.9023785"
       id="rect824"
       width="76.410316"
       height="79.987579"
       x="9.284955"
       y="93.320152" />
    <rect
       style="fill:#e9edef;fill-opacity:1;stroke:none;stroke-width:0.40881714"
       id="rect824-3"
       width="41.353153"
       height="30.335184"
       x="18.013496"
       y="148.05225" />
    <rect
       style="fill:#e9edef;fill-opacity:1;stroke:none;stroke-width:0.71115965"
       id="rect841"
       width="34.055534"
       height="50.510933"
       x="-8.0289917"
       y="155.56451" />
    <rect
       style="fill:#e9edef;fill-opacity:1;stroke:none;stroke-width:0.71115965"
       id="rect843"
       width="25.040855"
       height="13.307405"
       x="21.876919"
       y="169.30121" />
    <rect
       style="fill:#e9edef;fill-opacity:1;stroke:none;stroke-width:0.71115965"
       id="rect845"
       width="8.0130606"
       height="13.450494"
       x="24.023254"
       y="175.02481" />
    <rect
       style="fill:#e9edef;fill-opacity:1;stroke:none;stroke-width:0.71115965"
       id="rect847"
       width="42.211689"
       height="8.8716087"
       x="-1.0175486"
       y="175.74028" />
    <rect
       style="fill:#e9edef;fill-opacity:1;stroke:none;stroke-width:0.71115965"
       id="rect849"
       width="4.7219696"
       height="27.759537"
       x="28.029812"
       y="158.71251" />
    <path
       style="fill:#e9edef;fill-opacity:1;stroke:none;stroke-width:0.71115965"
       id="path851"
       d="m 30.143191,186.9276 c 0.386221,-0.41231 0.767689,-0.82829 1.175587,-1.21944 0.701856,-0.67363 1.416705,-1.33228 2.143169,-1.97928 0.355301,-0.31271 0.701161,-0.63584 1.063027,-0.94105 0.03418,-0.0288 0.313299,-0.26353 0.385202,-0.30373 0.645165,-0.36075 1.298562,-0.70655 1.947848,-1.05982 0.04626,0.049 0.106204,0.088 0.138864,0.14692 0.248394,0.44813 -0.205969,1.28744 -0.39283,1.68272 -0.416266,0.80357 -0.949637,1.5376 -1.460438,2.28223 -0.303931,0.44704 -0.644976,0.8665 -0.995065,1.27768 -0.239125,0.29597 -0.539539,0.52445 -0.853199,0.73428 -0.708321,0.33118 -1.594,1.22566 -2.535999,1.26467 -0.265761,0.007 -0.531685,0.005 -0.797509,0.005 -0.1589,-0.0272 -0.434246,0.0747 -0.557366,-0.0656 -0.04256,-0.0485 -0.05933,-0.11464 -0.089,-0.17195 0.0045,-0.0779 -0.0081,-0.15839 0.01181,-0.23368 0.140757,-0.52065 0.907878,-1.09134 1.313098,-1.4064 0.134526,-0.0865 0.265112,-0.17947 0.40357,-0.25954 0.728068,-0.42107 1.457363,-0.84028 2.195432,-1.24357 0.182821,-0.0999 0.699096,-0.30106 0.891593,-0.38015 0.33596,-0.13804 0.465986,-0.19465 0.794867,-0.33478 0.234508,-0.0894 0.970079,-0.55998 1.090178,-0.0628 0.01957,0.0809 -0.0018,0.16639 -0.0036,0.24958 -0.278728,0.76382 -0.896824,1.34998 -1.481069,1.89139 -0.820314,0.71487 -1.771041,1.1689 -2.731986,1.70965 -0.216636,0.12191 -0.470224,0.19719 -0.708591,0.26305 -0.260369,0.0564 -0.503317,0.1759 -0.774119,0.14021 -0.142714,-0.0481 -0.186672,-0.14982 -0.23779,-0.27957 0,0 1.868651,-1.02567 1.868651,-1.02567 v 0 c 0.0063,0.0667 0.01912,0.0544 0.09122,0.0555 0.246186,-0.0383 0.48128,-0.12325 0.722776,-0.18261 0.170919,-0.059 0.22522,-0.0735 0.397348,-0.15255 0.08882,-0.0409 0.346554,-0.1806 0.262903,-0.13 -2.874835,1.73876 -1.371638,0.85007 -0.806166,0.38415 0.574471,-0.50561 1.151737,-1.05218 1.496389,-1.74639 0.02209,-0.0417 0.108169,-0.12378 0.06123,-0.12737 -0.30889,-0.0236 -0.592622,0.22448 -0.876318,0.29935 -0.409197,0.17105 -0.823894,0.33222 -1.22859,0.51371 -0.147142,0.066 -0.572389,0.295 -0.437258,0.20701 0.06709,-0.0436 2.211951,-1.30946 0.930493,-0.553 -0.523623,0.38127 -1.058013,0.79285 -1.392827,1.35938 -6.3e-5,0.009 -0.0081,0.0224 -1.99e-4,0.0257 0.149982,0.0619 0.357718,-0.0326 0.513471,0.008 0.261009,0.002 0.523244,0.006 0.782874,-0.0251 0.766057,-0.15196 1.98169,-1.14381 -1.142747,0.77471 0.315436,-0.20047 0.636499,-0.40107 0.888185,-0.682 0.348791,-0.41643 0.710575,-0.82276 1.023162,-1.26858 0.520576,-0.73646 1.059952,-1.46542 1.490186,-2.25967 0.06817,-0.13761 0.142885,-0.27219 0.204607,-0.41283 0.07809,-0.17788 0.333813,-0.78098 0.264986,-0.99379 -0.0027,-0.009 -0.01542,0.009 -0.02317,0.014 0.568682,-0.33312 1.137364,-0.66624 1.706037,-0.99937 -0.06078,0.036 -0.124382,0.0677 -0.182443,0.10804 -0.482019,0.33457 -0.893966,0.76086 -1.342693,1.13569 -0.711621,0.63201 -1.413351,1.27307 -2.083863,1.94885 -0.409999,0.37789 -0.79539,0.77618 -1.169717,1.18912 0,0 -1.954224,0.83029 -1.954224,0.83029 z"
       inkscape:connector-curvature="0" />
    <path
       style="fill:#e9edef;fill-opacity:1;stroke:none;stroke-width:0.71115965"
       id="path853"
       d="m 30.424633,187.65171 c 0.469683,-0.44784 0.966823,-0.85952 1.499861,-1.22923 0.842928,-0.55944 0.182208,-0.12711 2.195323,-1.28894 0.05473,-0.0316 0.220631,-0.12353 0.165834,-0.092 -2.93992,1.69086 -2.053385,1.26579 -1.497697,0.82884 0.463443,-0.53661 0.103057,-0.1235 1.944188,-0.77678 0.05762,-0.0205 -0.09113,0.0817 -0.134076,0.12525 -0.06077,0.0617 -0.120847,0.12423 -0.177014,0.19015 -0.144436,0.16945 -0.270369,0.351 -0.401099,0.53095 -0.377736,0.49447 -0.663362,1.04855 -1.006129,1.56578 -0.762145,1.11069 -0.271848,0.53421 -2.302934,1.72432 -0.374958,-0.33039 -0.169648,-0.85774 -0.01866,-1.25112 0.238881,-0.56925 0.595976,-1.06039 1.001656,-1.51913 0.05564,-0.0143 0.308232,-0.40653 0.350991,-0.42513 0.05329,-0.0232 -0.01993,0.12788 -0.06799,0.16061 -0.0651,0.0444 -0.143922,0.0642 -0.215888,0.0964 -0.620638,0.32284 -1.942285,1.03741 0.792063,-0.4718 0.126564,-0.0698 -0.245941,0.15201 -0.368412,0.22882 -0.107637,0.0675 -0.214778,0.13583 -0.321911,0.20416 -0.105725,0.0674 -0.21109,0.13543 -0.316635,0.20313 -1.17098,0.73586 -2.383664,1.40128 -3.586988,2.0824 -0.895606,0.52483 0.5587,-0.32838 1.368896,-0.78223 0.05428,-0.0305 -0.105491,0.067 -0.153065,0.10724 -0.139793,0.11818 -0.203444,0.25191 -0.270135,0.41726 -0.111217,0.34273 -0.05861,0.6827 0.02858,1.02252 0.05473,0.11861 0.08611,0.25444 0.166123,0.36057 0.009,0.0114 0.04689,0.019 0.03427,0.0258 -1.918598,1.03135 -1.972998,1.64428 -1.83986,0.80329 0.01434,-0.98641 -0.06312,-1.97282 -0.208566,-2.94793 -0.02777,-0.1205 -0.04445,-0.2441 -0.08323,-0.3615 -0.01434,-0.0433 -0.12275,-0.31262 -0.229774,-0.32489 -0.04554,-0.005 -0.155211,0.0969 -0.114544,0.0758 1.726109,-0.89391 2.064359,-1.36452 1.46684,-0.64162 -0.432172,0.74236 -0.467285,1.59792 -0.440892,2.43394 0.05185,0.4523 0.01407,1.01997 0.324914,1.3955 0.04779,0.0577 0.110459,0.10133 0.16568,0.15199 0.374562,0.27579 0.852974,0.37315 1.309843,0.26794 0.106952,-0.0246 0.207069,-0.0728 0.310595,-0.10921 0.652577,-0.35904 2.002303,-1.01226 -0.986048,0.56668 -0.07466,0.0395 0.13357,-0.1035 0.197763,-0.15836 0.104563,-0.0894 0.203165,-0.1855 0.305671,-0.27722 0.639998,-0.36968 1.282792,-0.73458 1.920004,-1.10903 0.590026,-0.34673 -1.19988,0.66028 -1.778435,1.02583 -0.02344,0.0148 0.06312,0.0685 0.03616,0.075 -0.01226,0.003 -0.33118,-0.3604 -0.354237,-0.38764 -0.224273,-0.18663 -0.464453,-0.66468 -0.819718,-0.60905 -0.05996,0.009 -0.110351,0.0504 -0.165518,0.0756 -0.762424,0.48673 0.336455,-0.21962 1.435614,-0.78939 0.0679,-0.0352 -0.116916,0.0992 -0.169792,0.15453 -0.139739,0.1462 -0.243922,0.3218 -0.349026,0.49295 -0.205265,0.31812 -0.338304,0.67124 -0.478952,1.02028 -0.05293,0.16322 -0.03598,0.0802 -0.05149,0.24904 0,0 -1.888931,0.96368 -1.888931,0.96368 v 0 c -0.01704,-0.22523 -0.02417,-0.11637 0.01659,-0.32683 0.1533,-0.35172 0.271866,-0.71855 0.469539,-1.04975 0.642532,-1.08569 1.188654,-1.51615 2.701544,-1.98809 0.07439,4.3e-4 0.150045,-0.012 0.223282,0.002 0.385607,0.0699 0.614462,0.47234 0.879646,0.71668 0.04328,0.0472 0.574615,0.55274 0.498952,0.60734 -0.05004,0.0361 -4.668526,2.73425 -0.16118,0.0913 -0.191307,0.13203 -0.340712,0.34102 -0.516807,0.45106 -0.827933,0.51735 -1.686371,1.1196 -2.619037,1.47787 -0.698114,0.15701 -1.17685,0.11565 -1.758102,-0.33156 -0.06375,-0.0657 -0.135347,-0.12449 -0.191127,-0.19704 -0.321947,-0.41867 -0.318322,-1.00258 -0.355409,-1.5026 -0.02597,-0.86437 -3.6e-5,-1.74595 0.372037,-2.54469 0.505472,-0.93056 0.195238,-0.47851 2.162248,-1.44432 0.06537,-0.0321 0.146601,0.0297 0.206474,0.0711 0.251758,0.17404 0.278584,0.56396 0.336005,0.82443 0.126663,0.97967 0.191794,1.96624 0.266609,2.95088 0.10651,0.91328 0.09444,0.26541 -1.87243,1.26133 -0.02606,0.0133 -0.158322,-0.29739 -0.167673,-0.31995 -0.02236,-0.0541 -0.04337,-0.10881 -0.0651,-0.16322 -0.09783,-0.37181 -0.17504,-0.74537 -0.08287,-1.12816 0.04463,-0.18131 0.100559,-0.38604 0.221794,-0.53505 0.04184,-0.0515 0.09424,-0.0953 0.151036,-0.12957 1.085282,-0.65463 1.434172,-0.84928 2.221591,-1.29225 0.810133,-0.44023 0.218764,-0.12286 -1.170592,0.69805 -0.10835,0.064 0.22072,-0.12118 0.328141,-0.18676 0.287673,-0.1756 0.567997,-0.36299 0.863668,-0.52603 1.233279,-0.79675 2.473492,-1.60862 3.813281,-2.21207 0.178079,-0.0476 0.525418,-0.15779 0.562812,0.16249 0.01569,0.13475 -0.290153,0.39289 -0.354066,0.48354 -0.187465,0.20928 -0.400783,0.40774 -0.562343,0.63858 -0.179395,0.2563 -0.325824,0.54067 -0.469584,0.81754 -0.108467,0.23996 -0.119873,0.23504 -0.181316,0.48024 -0.06041,0.24112 -0.03012,0.1224 -0.02732,0.33662 1.54e-4,0.0116 -0.0045,0.0456 -0.0072,0.0343 -0.0036,-0.0146 0.0027,-0.0299 0.0054,-0.0448 -0.58421,0.34945 -1.168419,0.69892 -1.752628,1.04838 0.02308,-0.0204 0.04896,-0.0377 0.06907,-0.061 0.14531,-0.16917 0.224156,-0.39095 0.384119,-0.54989 0.366862,-0.50831 0.642875,-1.07339 1.021332,-1.57453 0.09638,-0.14072 0.503326,-0.79624 0.65063,-0.86313 0.667617,-0.30312 1.350393,-0.57172 2.026829,-0.85462 0.0091,-0.004 -0.01605,0.0114 -0.02407,0.017 -0.61503,0.57848 -1.29859,0.81831 -2.120364,1.29947 -0.05329,0.0312 -0.214995,0.12151 -0.161695,0.0903 1.790536,-1.04717 2.128245,-1.26313 1.392891,-0.80058 -0.531171,0.34972 -1.029078,0.73274 -1.483558,1.17919 0,0 -1.963683,0.8134 -1.963683,0.8134 z"
       inkscape:connector-curvature="0" />
    <path
       style="fill:#ffffff;fill-opacity:1;stroke:none;stroke-width:0.71115965"
       id="path855"
       d="m 26.526843,229.98527 c 0.279522,-1.34247 0.452235,-2.70168 0.587176,-4.06525 0.08179,-1.48143 -0.05951,-2.96848 -0.179161,-4.44463 -0.158042,-1.46026 -0.360765,-2.92006 -0.636851,-4.3629 -0.340261,-1.47399 -0.682775,-2.9472 -1.013433,-4.42346 -0.341694,-1.28037 -0.610909,-2.578 -0.906742,-3.86926 0,0 1.7972,-0.9657 1.7972,-0.9657 v 0 c 0.278448,1.29672 0.560161,2.59265 0.894903,3.87631 0.315788,1.47961 0.633821,2.95817 1.026958,4.41979 0.309783,1.45116 0.398286,2.94461 0.58751,4.41449 0.08521,0.90919 0.166239,1.81833 0.23843,2.72864 0.03463,0.43647 0.07421,0.76734 0.05933,1.19889 -0.0054,0.17518 -0.02931,0.34933 -0.04391,0.524 -0.169729,1.34262 -0.343489,2.68481 -0.515977,4.02697 0,0 -1.895469,0.94211 -1.895469,0.94211 z"
       inkscape:connector-curvature="0" />
  </g>
</svg>
